<?xml version="1.0" encoding="utf-8"?>
<!-- Generator: Adobe Illustrator 25.0.0, SVG Export Plug-In . SVG Version: 6.00 Build 0)  -->
<svg version="1.1" id="Capa_1" xmlns="http://www.w3.org/2000/svg" xmlns:xlink="http://www.w3.org/1999/xlink" x="0px" y="0px"
	 viewBox="0 0 53.5 53.5" style="enable-background:new 0 0 53.5 53.5;" xml:space="preserve">
<style type="text/css">
	.st0{fill:#032A2D;}
	.st1{fill:#E3D8C2;}
</style>
<path class="st0" d="M49.2,53.5H4.3c-2.4,0-4.3-1.9-4.3-4.3V4.3C0,1.9,1.9,0,4.3,0h44.8c2.4,0,4.3,1.9,4.3,4.3v44.8
	C53.5,51.6,51.6,53.5,49.2,53.5z"/>
<g>
	<path class="st1" d="M16,43.6c0.1,0.2,0.4,0.2,0.5,0l4.6-7.6c0.1-0.1,0.1-0.2,0-0.3l-1.6-2.7c-0.1-0.2-0.4-0.2-0.6,0l-4.6,7.6
		c-0.1,0.1-0.1,0.2,0,0.3L16,43.6z"/>
	<polyline class="st1" points="20.1,47.7 20.2,47.5 20.8,46.5 21.3,45.7 21.3,45.7 21.7,45 21.9,44.7 22.2,44.1 	"/>
	<path class="st1" d="M22,38c0.1-0.1,0.2-0.2,0.3-0.2h2.1c0.1,0,0.2,0.1,0.3,0.1l4.5,7.6c0.1,0.1,0.1,0.2,0,0.3l-1.7,2.7
		c-0.1,0.2-0.4,0.2-0.5,0l-3.4-5.8c-0.1-0.2-0.4-0.2-0.6,0l-3.5,5.7c-0.1,0.2-0.4,0.2-0.5,0l-1.6-2.8c-0.1-0.1-0.1-0.2,0-0.3L22,38z
		"/>
	<path class="st1" d="M45.1,42.6c0.1,0.2,0,0.4-0.3,0.4H40c-0.2,0-0.4,0.3-0.3,0.4l1.3,2.2c0.1,0.1,0.1,0.2,0,0.3l-1.7,2.7
		c-0.1,0.2-0.4,0.2-0.5,0l-2.5-4.2c-0.1-0.2-0.4-0.2-0.5,0l-2.5,4.2c-0.1,0.2-0.4,0.2-0.5,0l-1.6-2.8c-0.1-0.1-0.1-0.2,0-0.3
		l2.9-4.7c0.1-0.1,0.1-0.2,0-0.3l-2.5-4.2c-0.1-0.1-0.2-0.1-0.3-0.1H30c-0.2,0-0.4,0.2-0.3,0.4l2.4,4c0.1,0.1,0.1,0.2,0,0.3
		l-1.6,2.7c-0.1,0.2-0.4,0.2-0.6,0l-4.3-7.3c0-0.1-0.1-0.1-0.3-0.1h-1.6c-0.1,0-0.2-0.1-0.3-0.2l-3.9-6.5c-0.1-0.1-0.2-0.2-0.3-0.2
		c-0.1,0-0.2,0.1-0.3,0.1L15.2,36c-0.1,0.1-0.2,0.1-0.3,0.1h-3.3c-0.2,0-0.4-0.3-0.3-0.4l3.6-5.9c0.1-0.2,0-0.4-0.3-0.4H6.8
		c-0.2,0-0.3-0.1-0.3-0.3v-2.7c0-0.2,0.1-0.3,0.3-0.3h7.9c0.2,0,0.4-0.3,0.3-0.4l-3.6-5.9c-0.1-0.2,0-0.4,0.3-0.4H15
		c0.1,0,0.2,0.1,0.3,0.1l3.9,6.5c0.1,0.1,0.2,0.1,0.3,0.1c0.1,0,0.2-0.1,0.3-0.1l3.9-6.5c0.1-0.1,0.2-0.2,0.3-0.2h1.6
		c0.1,0,0.2-0.1,0.3-0.1l4.3-7.3c0.1-0.2,0.4-0.2,0.6,0l1.4,2.4l0.2,0.3c0.1,0.1,0.1,0.2,0,0.3l-2.4,4c-0.1,0.2,0,0.4,0.3,0.4h1.4
		c0.1,0,0.2-0.1,0.3-0.1l2.5-4.2c0.1-0.1,0.1-0.2,0-0.3l-2.9-4.7c-0.1-0.1-0.1-0.2,0-0.3l1.6-2.8c0.1-0.2,0.4-0.2,0.5,0l2.5,4.2
		c0.1,0.2,0.4,0.2,0.5,0l2.5-4.2c0.1-0.2,0.4-0.2,0.5,0l1.7,2.7c0.1,0.1,0.1,0.2,0,0.3l-1.3,2.2c-0.1,0.2,0,0.4,0.3,0.4h4.8
		c0.2,0,0.4,0.3,0.3,0.4l-1.7,2.8c-0.1,0.1-0.2,0.1-0.3,0.1h-5.5c-0.1,0-0.2,0.1-0.3,0.1l-3.9,6.5c0,0.1-0.1,0.1-0.3,0.1h-7.6
		c-0.1,0-0.2,0.1-0.3,0.1l-2.8,4.8c0,0,0,0.1,0,0.1c0,0,0,0.1,0,0.1l2.8,4.8c0.1,0.1,0.1,0.1,0.3,0.1h7.6c0.1,0,0.2,0.1,0.3,0.1
		l3.9,6.5c0.1,0.1,0.1,0.1,0.3,0.1h5.5c0.1,0,0.2,0.1,0.3,0.1L45.1,42.6z"/>
	<polyline class="st1" points="30.9,43.1 31.2,42.5 31.9,41.3 	"/>
	<g>
		<path class="st1" d="M14.4,14.5c-0.1,0.1-0.1,0.2,0,0.3l4.6,7.6c0.1,0.2,0.4,0.2,0.6,0l1.6-2.7c0.1-0.1,0.1-0.2,0-0.3l-4.6-7.6
			c-0.1-0.2-0.4-0.2-0.5,0L14.4,14.5z"/>
		<polyline class="st1" points="20.1,7.6 20.2,7.9 20.8,8.9 21.3,9.6 21.3,9.6 21.7,10.3 21.9,10.7 22.2,11.2 		"/>
		<path class="st1" d="M22,17.3c0.1,0.1,0.2,0.2,0.3,0.2h2.1c0.1,0,0.2-0.1,0.3-0.1l4.5-7.6c0.1-0.1,0.1-0.2,0-0.3l-1.7-2.7
			c-0.1-0.2-0.4-0.2-0.5,0l-3.4,5.8c-0.1,0.2-0.4,0.2-0.6,0l-3.5-5.7c-0.1-0.2-0.4-0.2-0.5,0l-1.6,2.8c-0.1,0.1-0.1,0.2,0,0.3
			L22,17.3z"/>
		<polyline class="st1" points="30.9,12.3 31.2,12.9 31.9,14.1 		"/>
	</g>
</g>
</svg>
